<svg width="46" height="46" viewBox="0 0 46 46" fill="none" xmlns="http://www.w3.org/2000/svg">
<rect width="46" height="46" rx="23" fill="#FEE00E"/>
<path fill-rule="evenodd" clip-rule="evenodd" d="M23.0037 33.5261C21.6522 33.4785 21.3025 33.4753 20.6672 33.4071L14.887 37.0903C13.9797 37.6217 14.0257 36.8532 14.0257 36.8532C14.0416 36.6573 14.9418 33.2564 15.328 31.8011C8.09728 28.6128 8.73732 22.3552 8.73732 22.3552C9.85242 11.7134 23.0029 11.8982 23.0029 11.8982C23.0029 11.8982 36.3143 11.8014 37.2708 22.3552C37.2708 22.3552 37.8244 32.7607 23.0029 33.5253L23.0037 33.5261ZM17.253 19.5026H13.0463C12.8518 19.5003 12.6644 19.5754 12.5253 19.7114C12.3862 19.8474 12.3069 20.033 12.3048 20.2275C12.3048 20.6281 12.6363 20.9524 13.0463 20.9524H14.4081V25.9077H14.4192C14.4835 26.2599 14.7917 26.5148 15.1496 26.5121C15.5176 26.5121 15.8222 26.2504 15.8809 25.9077H15.892V20.9524H17.253C17.663 20.9524 17.9953 20.6273 17.9953 20.2275C17.9932 20.0329 17.9138 19.8471 17.7745 19.7111C17.6352 19.5751 17.4476 19.5001 17.253 19.5026ZM23.1885 25.4254L21.0852 20.1085C21.0852 20.1085 20.7711 19.474 20.0954 19.3923V19.3828C20.074 19.3828 20.0542 19.386 20.0336 19.3875C20.0129 19.386 19.9939 19.3828 19.9725 19.3828V19.3923C19.2968 19.474 18.9827 20.1085 18.9827 20.1085L16.8794 25.4254C16.7994 25.6029 16.7936 25.8049 16.8633 25.9866C16.933 26.1683 17.0724 26.3146 17.2506 26.393C17.9747 26.5754 18.2403 26.029 18.2403 26.029L18.6107 25.063H21.458L21.8283 26.029C21.8283 26.029 22.094 26.5754 22.8181 26.3922C22.8181 26.3922 23.4368 26.1384 23.1893 25.4247L23.1885 25.4254ZM27.1565 24.9417H25.1769V20.1085C25.1748 19.914 25.0955 19.7282 24.9564 19.5921C24.8173 19.456 24.6299 19.3807 24.4353 19.3828C24.2406 19.3805 24.053 19.4557 23.9137 19.5918C23.7745 19.7279 23.6951 19.9138 23.693 20.1085V25.6674C23.693 26.0671 24.0245 26.3923 24.4353 26.3923H27.1565C27.5665 26.3923 27.8996 26.0671 27.8996 25.6674C27.8944 25.2621 27.5618 24.9376 27.1565 24.9425V24.9417ZM33.3425 20.6494L33.3338 20.6415C33.4196 20.5211 33.4656 20.3769 33.4654 20.2291C33.4631 20.0345 33.3836 19.8488 33.2444 19.7129C33.1052 19.5769 32.9177 19.5019 32.7231 19.5042C32.5668 19.5042 32.4217 19.5518 32.302 19.6327L32.2932 19.6247L29.7545 22.104V20.1085C29.7497 19.7032 29.4175 19.3784 29.0122 19.3828C28.6068 19.3784 28.2746 19.7032 28.2698 20.1085V23.5538L28.269 23.5546V25.6674C28.269 26.0671 28.6021 26.3923 29.0122 26.3923C29.4214 26.3923 29.7545 26.0671 29.7545 25.6674V24.1549L30.2645 23.6569L32.2869 26.1726L32.3027 26.1599C32.4392 26.3027 32.6319 26.3923 32.8476 26.3923C33.2568 26.3923 33.5892 26.0671 33.5892 25.6674C33.5889 25.4491 33.4893 25.2428 33.3187 25.1067L31.3217 22.6242L33.3425 20.6494ZM19.9798 23.7356H19.1129L20.0409 21.2421L20.9688 23.7348H19.9798V23.7356Z" fill="#3C1E1E"/>
</svg>
