<svg width="17" height="18" viewBox="0 0 17 18" fill="none" xmlns="http://www.w3.org/2000/svg">
<path fill-rule="evenodd" clip-rule="evenodd" d="M7.72066 13.1222L6.64397 14.2097C6.24414 14.6138 5.69925 14.8413 5.13073 14.8413C4.5622 14.8413 4.01731 14.6138 3.61749 14.2097C2.78338 13.362 2.78338 12.0019 3.61749 11.1542L6.64397 8.0996C7.0434 7.69532 7.58806 7.46778 8.15638 7.46778C8.7247 7.46778 9.26937 7.69532 9.6688 8.0996C9.92949 8.36277 10.0991 8.67974 10.1985 9.01491C10.2771 8.96857 10.3582 8.9305 10.4252 8.86346L11.8313 7.44415C11.653 7.12678 11.4346 6.83362 11.1816 6.57188C10.383 5.76218 9.29323 5.30634 8.15597 5.30634C7.01871 5.30634 5.9289 5.76218 5.13031 6.57188L2.10466 9.6265C0.433864 11.3205 0.433864 14.0425 2.10466 15.7366C2.90347 16.5459 3.99319 17.0014 5.13031 17.0014C6.26743 17.0014 7.35716 16.5459 8.15597 15.7366L10.4492 13.4218C9.52915 13.5624 8.58829 13.4591 7.72066 13.1222ZM15.7201 8.09877L12.6945 11.1542C11.896 11.9639 10.8063 12.4197 9.66921 12.4197C8.53208 12.4197 7.44241 11.9639 6.64397 11.1542C6.39112 10.8925 6.17254 10.5996 5.99348 10.2828L7.40038 8.86346C7.46659 8.79478 7.54935 8.75588 7.62797 8.70953C7.72562 9.04471 7.89528 9.36333 8.15597 9.6265C8.55554 10.0308 9.10034 10.2584 9.6688 10.2584C10.2373 10.2584 10.7821 10.0308 11.1816 9.6265L14.2073 6.57188C15.0417 5.72464 15.0417 4.3645 14.2073 3.51726C13.8077 3.11292 13.2629 2.88537 12.6945 2.88537C12.126 2.88537 11.5812 3.11292 11.1816 3.51726L10.1058 4.60388C9.23784 4.26697 8.29672 4.16367 7.37638 4.30429L9.6688 1.98953C10.4674 1.17983 11.5572 0.723999 12.6945 0.723999C13.8317 0.723999 14.9215 1.17983 15.7201 1.98953C17.3909 3.68356 17.3909 6.40557 15.7201 8.0996" fill="#FEFEFE"/>
</svg>
