<svg width="78" height="11" viewBox="0 0 78 11" fill="none" xmlns="http://www.w3.org/2000/svg">
<path fill-rule="evenodd" clip-rule="evenodd" d="M12.8573 0.491455V10.2501H10.6058V0.491455H12.8573ZM8.75568 7.07373C8.75568 9.14026 7.18665 10.4988 4.79483 10.4988C2.40302 10.4988 0.833984 9.14026 0.833984 7.07373V1.04636H3.1684V6.82498C3.1684 7.89651 3.75519 8.52795 4.79483 8.52795C5.84085 8.52795 6.42126 7.89651 6.42126 6.82498V1.04636H8.75568V7.07373ZM17.6669 10.2628C18.0942 10.2628 18.5088 10.2245 18.7448 10.1735V8.56622C18.579 8.58536 18.4387 8.59811 18.1772 8.59811C17.5904 8.59811 17.3161 8.33661 17.3161 7.80084V4.92429H18.7448V3.24683H17.3161V1.52472H15.0646V3.24683H13.974V4.92429H15.0646V8.30472C15.0646 9.69516 15.7981 10.2628 17.6669 10.2628ZM22.3043 6.49332V10.2501H20.0528V3.15115H22.2469V4.31836H22.3681C22.5403 3.604 23.2291 3.04272 24.1157 3.04272C24.4155 3.04272 24.7663 3.08099 24.9321 3.15115V5.07098C24.7599 5.00082 24.3071 4.94342 23.9626 4.94342C22.9676 4.94342 22.3043 5.5047 22.3043 6.49332ZM27.6688 10.3585C28.5681 10.3585 29.3463 9.9758 29.6652 9.36987H29.7864V10.2501H31.9805V5.40903C31.9805 3.87827 30.8643 2.98532 28.9062 2.98532C26.9864 2.98532 25.7299 3.84 25.6278 5.21768H27.6561C27.8028 4.84137 28.1854 4.64365 28.7786 4.64365C29.4037 4.64365 29.7609 4.93066 29.7609 5.40903V5.96393L28.211 6.05322C26.3804 6.16165 25.3727 6.91428 25.3727 8.20905C25.3727 9.51019 26.3039 10.3585 27.6688 10.3585ZM27.5476 8.04959C27.5476 8.50244 27.9239 8.78308 28.4916 8.78308C29.206 8.78308 29.7609 8.3111 29.7609 7.69879V7.23318L28.5681 7.30972C27.8984 7.36075 27.5476 7.62225 27.5476 8.04959ZM39.0867 10.2501V6.53796H42.7541V10.2501H45.0885V1.04636H42.7541V4.6564H39.0867V1.04636H36.7459V10.2501H39.0867ZM55.2494 5.55573C55.2494 8.57898 53.7123 10.2501 50.9442 10.2501H47.079V1.04636H50.9442C53.6868 1.04636 55.2494 2.67917 55.2494 5.55573ZM50.5232 8.3685H49.4198V2.92792H50.5232C51.9966 2.92792 52.864 3.88464 52.864 5.60037C52.864 7.42453 52.0412 8.3685 50.5232 8.3685ZM66.1889 8.68103V10.2501H63.9757V8.68103H59.46V6.91428C60.5825 4.85413 61.7433 2.92154 62.9424 1.04636H66.1889V6.85687H67.337V8.68103H66.1889ZM64.0331 6.93979H61.4818V6.82498C62.2281 5.44092 63.0955 3.99945 63.9183 2.71744H64.0331V6.93979ZM71.2983 7.64777V10.2501H68.9575V1.04636H71.2983V5.00082H71.4195L74.481 1.04636H76.994L73.8113 5.10925L77.179 10.2501H74.43L72.1083 6.62088L71.2983 7.64777Z" fill="#bfbfbf" />
</svg>
